<svg xmlns="http://www.w3.org/2000/svg" version="1.1" xmlns:xlink="http://www.w3.org/1999/xlink" xmlns:svgjs="http://svgjs.dev/svgjs" viewBox="0 0 1920 1080" class="overflow-hidden rounded-md drop-shadow-lg transition duration-300" style="overflow: hidden; height: 85vh;"><rect width="1920" height="1080" fill="#ffc300"></rect><g clip-path="url(&quot;#SvgjsClipPath1093&quot;)"><g transform="matrix(0.6094071538681856,0.9752553105798899,-0.9752553105798899,0.6094071538681856,891.5736045448546,-700.2729862864883)"><path d="M0,-1080C-8.28269145144398,-953.8077112514093,-43.08419301121749,-596.8968874930135,-49.696148708663884,-322.8462675084553C-56.30810440611028,-48.795647523897,-41.37475108644721,289.2163434759295,-39.6717341846784,564.3037199073498C-37.96871728290959,839.39109633877,-46.09000299549739,1061.7286110646246,-39.478047298050996,1327.6779910800662C-32.8660916006046,1593.627371095508,-6.579674549675166,2021.279665180011,0,2160L 1920 2160 L 1920 -1080 Z" fill="url(&quot;#SvgjsLinearGradient1086&quot;)"></path><path d="M274.2857142857143,-1080C283.3916097950942,-998.9743384512135,324.1892904240248,-781.2599417761368,328.921087341994,-593.8460307072812C333.6528842599632,-406.43211963842566,315.48767236469723,-133.9555060883061,302.6764957935294,44.483466413133044C289.86531922236156,222.92243891457218,263.63206074640163,297.78087318677507,252.054027914987,476.78780430135356C240.47599508357234,655.7947354159321,225.90513694298693,931.831544506946,233.20829880504158,1118.525053100604C240.51146066709623,1305.218561694262,289.02676317386937,1423.369698046736,295.87299908731484,1596.948855863302C302.7192350007603,1770.528013679868,277.883595085981,2066.158142643884,274.2857142857143,2160L 1920 2160 L 1920 -1080 Z" fill="url(&quot;#SvgjsLinearGradient1087&quot;)"></path><path d="M548.5714285714286,-1080C547.040404095165,-1008.2242891211201,547.4626175764905,-793.9792252331591,539.3852817138471,-649.345734726721C531.3079458512037,-504.71224422028297,497.1415121392093,-375.9335143413523,500.10741339556796,-212.1990569613715C503.07331465192664,-48.46459958139073,557.3095778677027,176.41861765195554,557.1806892519993,333.06100955316356C557.0518006362959,489.7034014543716,496.82667077076314,572.4880365355259,499.3340817013477,727.6552944458765C501.8414926319323,882.8225523562271,571.189823100418,1092.0795733393093,572.2251548355068,1264.064557015267C573.2604865705956,1436.0495406912246,509.48835982256,1610.2426226708335,505.54607211188033,1759.5651965016223C501.60378440120064,1908.887770332411,541.4005358281705,2093.2608660836036,548.5714285714286,2160L 1920 2160 L 1920 -1080 Z" fill="url(&quot;#SvgjsLinearGradient1088&quot;)"></path><path d="M822.8571428571428,-1080C832.4858632801947,-1022.8110756222025,877.7771238433035,-865.2118175722253,880.6294653954549,-736.8664537332145C883.4818069476063,-608.5210898942037,859.8205048607376,-446.3156141131524,839.9711921700513,-309.9278169659349C820.1218794793649,-173.54001981871735,766.1655697785277,-55.81412463784869,761.5335892513369,81.4603291500907C756.9016087241462,218.7347829380301,799.8416596472722,360.1418641334476,812.1793090069067,513.7189057617014C824.5169583665412,667.2959473899552,843.7110893528251,861.4651479345201,835.5594854091439,1002.9225789196139C827.4078814654628,1144.3800099047078,764.1802729182037,1243.1722675110898,763.2696853448199,1362.4634916722641C762.359097771436,1481.7547158334385,820.1647170501204,1585.7471724987042,830.0959599688409,1718.6699238866602C840.0272028875614,1851.592675274616,824.0636123757591,2086.4449873144436,822.8571428571428,2160L 1920 2160 L 1920 -1080 Z" fill="url(&quot;#SvgjsLinearGradient1089&quot;)"></path><path d="M1097.142857142857,-1080C1087.8147131623584,-1002.6549124394267,1051.3402159475343,-772.4494396132076,1041.173993259865,-615.9294746365596C1031.0077705721958,-459.4095096599116,1029.542861849373,-299.4810316849438,1036.145521016842,-140.8802101401118C1042.748180184311,17.720611404720188,1064.566395427536,175.6119426478746,1080.7899482646797,335.67545463243243C1097.0135011018233,495.7389666169903,1125.812321198531,663.6079541851007,1133.4868380397038,819.5008617672353C1141.1613548808766,975.3937693493699,1128.3591653107906,1131.9922656000294,1126.8370493117168,1271.0329001252405C1125.314933312643,1410.0735346504516,1129.3031740734045,1505.5834856060414,1124.3541420452611,1653.7446689185012C1119.4051100171177,1801.905852230961,1101.6780712932577,2075.624111486417,1097.142857142857,2160L 1920 2160 L 1920 -1080 Z" fill="url(&quot;#SvgjsLinearGradient1090&quot;)"></path><path d="M1371.4285714285716,-1080C1362.4264612605684,-947.895865643891,1311.18437733024,-565.2746289981051,1317.4159104205526,-287.37519386334634C1323.647443510865,-9.475758728587664,1397.4701409734062,311.4536059323594,1408.817769970446,587.3966108085522C1420.165398967486,863.339615684745,1391.7332174931046,1106.182270528569,1385.501684402792,1368.2828353938103C1379.2701513124796,1630.3834002590515,1373.7740902576083,2028.0471392323018,1371.4285714285716,2160L 1920 2160 L 1920 -1080 Z" fill="url(&quot;#SvgjsLinearGradient1091&quot;)"></path><path d="M1645.7142857142856,-1080C1644.4477566265273,-1004.0629491660064,1635.8492812026147,-778.2993639904943,1638.115111187736,-624.3776949960386C1640.380941172857,-470.4560260015829,1654.1189177948427,-308.36499860558973,1659.3092656250133,-156.4699860332661C1664.4996134551839,-4.574973460942488,1665.4627808569835,134.58521024058635,1669.2571981687597,286.9923804379031C1673.051615480536,439.39955063521984,1693.841376090061,603.0301538285603,1682.0757694956712,757.9730351506344C1670.3101629012815,912.9159164727084,1607.251568978285,1054.9150137087754,1598.6635586024217,1216.6496683703474C1590.0755482265586,1378.3843230319194,1622.7059193885157,1571.1559078484584,1630.5477072404929,1728.380963120067C1638.38949509247,1885.6060183916757,1643.1865226353202,2088.0634938533444,1645.7142857142856,2160L 1920 2160 L 1920 -1080 Z" fill="url(&quot;#SvgjsLinearGradient1092&quot;)"></path></g></g><defs><linearGradient x1="0.1" y1="0" x2="0" y2="1" id="SvgjsLinearGradient1086"><stop stop-color="#ffc300" offset="0"></stop><stop stop-color="#ff9800" offset="0"></stop></linearGradient><linearGradient x1="0.1" y1="0" x2="0" y2="1" id="SvgjsLinearGradient1087"><stop stop-color="#ffc712" offset="0"></stop><stop stop-color="#ff9f12" offset="0.14285714285714285"></stop></linearGradient><linearGradient x1="0.1" y1="0" x2="0" y2="1" id="SvgjsLinearGradient1088"><stop stop-color="#ffcc25" offset="0"></stop><stop stop-color="#ffa825" offset="0.2857142857142857"></stop></linearGradient><linearGradient x1="0.1" y1="0" x2="0" y2="1" id="SvgjsLinearGradient1089"><stop stop-color="#ffd037" offset="0"></stop><stop stop-color="#ffaf37" offset="0.42857142857142855"></stop></linearGradient><linearGradient x1="0.1" y1="0" x2="0" y2="1" id="SvgjsLinearGradient1090"><stop stop-color="#ffd449" offset="0"></stop><stop stop-color="#ffb649" offset="0.5714285714285714"></stop></linearGradient><linearGradient x1="0.1" y1="0" x2="0" y2="1" id="SvgjsLinearGradient1091"><stop stop-color="#ffd95c" offset="0"></stop><stop stop-color="#ffbe5c" offset="0.7142857142857143"></stop></linearGradient><linearGradient x1="0.1" y1="0" x2="0" y2="1" id="SvgjsLinearGradient1092"><stop stop-color="#ffdd6e" offset="0"></stop><stop stop-color="#ffc56e" offset="0.8571428571428571"></stop></linearGradient><clipPath id="SvgjsClipPath1093"><rect width="1920" height="1080"></rect></clipPath></defs></svg>