<svg xmlns="http://www.w3.org/2000/svg" viewBox="0 0 1440 320"><path fill="#FFC300" fill-opacity="0.75" d="M0,160L24,144C48,128,96,96,144,117.3C192,139,240,213,288,240C336,267,384,245,432,218.7C480,192,528,160,576,144C624,128,672,128,720,112C768,96,816,64,864,74.7C912,85,960,139,1008,176C1056,213,1104,235,1152,245.3C1200,256,1248,256,1296,245.3C1344,235,1392,213,1416,202.7L1440,192L1440,0L1416,0C1392,0,1344,0,1296,0C1248,0,1200,0,1152,0C1104,0,1056,0,1008,0C960,0,912,0,864,0C816,0,768,0,720,0C672,0,624,0,576,0C528,0,480,0,432,0C384,0,336,0,288,0C240,0,192,0,144,0C96,0,48,0,24,0L0,0Z"></path></svg>