<svg xmlns="http://www.w3.org/2000/svg" viewBox="0 0 1440 320"><path fill="#FFC300" fill-opacity="0.75" d="M0,160L24,144C48,128,96,96,144,117.3C192,139,240,213,288,240C336,267,384,245,432,218.7C480,192,528,160,576,144C624,128,672,128,720,112C768,96,816,64,864,74.7C912,85,960,139,1008,176C1056,213,1104,235,1152,245.3C1200,256,1248,256,1296,245.3C1344,235,1392,213,1416,202.7L1440,192L1440,320L1416,320C1392,320,1344,320,1296,320C1248,320,1200,320,1152,320C1104,320,1056,320,1008,320C960,320,912,320,864,320C816,320,768,320,720,320C672,320,624,320,576,320C528,320,480,320,432,320C384,320,336,320,288,320C240,320,192,320,144,320C96,320,48,320,24,320L0,320Z"></path></svg>